<?xml version="1.0" encoding="UTF-8"?>
<svg version="1.1" xmlns="http://www.w3.org/2000/svg" width="40" height="42">
<path d="M0 0 C3.18653222 -0.20521899 6.37135052 -0.32822933 9.5625 -0.4375 C10.45775391 -0.49615234 11.35300781 -0.55480469 12.27539062 -0.61523438 C17.32745553 -0.7447745 20.32939428 -0.3429819 24.125 3.15625 C26.25017225 5.63305364 26.96546244 6.84389025 27.68359375 10.08984375 C27.60238281 11.02957031 27.52117188 11.96929687 27.4375 12.9375 C27.34275391 14.37416016 27.34275391 14.37416016 27.24609375 15.83984375 C27.16488281 16.55269531 27.08367188 17.26554687 27 18 C28.7015625 17.9690625 28.7015625 17.9690625 30.4375 17.9375 C34 18 34 18 35 19 C35.08713831 20.70772358 35.10700007 22.41898649 35.09765625 24.12890625 C35.09443359 25.16337891 35.09121094 26.19785156 35.08789062 27.26367188 C35.07532227 28.8965918 35.07532227 28.8965918 35.0625 30.5625 C35.05798828 31.65498047 35.05347656 32.74746094 35.04882812 33.87304688 C35.03699826 36.58208495 35.02051543 39.29101599 35 42 C21.63292763 42.16148141 8.35367484 41.639697 -5 41 C-5 29.12 -5 17.24 -5 5 C-4.34 5 -3.68 5 -3 5 C-3 4.34 -3 3.68 -3 3 C-2.34 3 -1.68 3 -1 3 C-0.67 2.01 -0.34 1.02 0 0 Z M2 2 C2.99 2.495 2.99 2.495 4 3 C4 6.63 4 10.26 4 14 C3.34 14 2.68 14 2 14 C2 20.6 2 27.2 2 34 C6.62 34 11.24 34 16 34 C16 33.01 16 32.02 16 31 C12.04 31 8.08 31 4 31 C4 30.34 4 29.68 4 29 C7.96 29 11.92 29 16 29 C16 28.34 16 27.68 16 27 C15.34 27 14.68 27 14 27 C14 26.34 14 25.68 14 25 C14.66 25 15.32 25 16 25 C16.33 23.35 16.66 21.7 17 20 C15.1128125 19.9071875 15.1128125 19.9071875 13.1875 19.8125 C9.96086796 19.40058953 9.2569202 19.27249112 6.9375 16.8125 C5.79363387 13.38090161 5.92956991 11.44066815 7 8 C10.08888522 5.94074319 10.70935927 5.7609626 14.1875 5.875 C16.0746875 5.936875 16.0746875 5.936875 18 6 C18 4.68 18 3.36 18 2 C12.72 2 7.44 2 2 2 Z M20 4 C20.33 4.99 20.66 5.98 21 7 C21.66 6.67 22.32 6.34 23 6 C22.01 5.34 21.02 4.68 20 4 Z M11 7 C11.33 7.99 11.66 8.98 12 10 C12.99 10 13.98 10 15 10 C15 9.01 15 8.02 15 7 C13.68 7 12.36 7 11 7 Z M9 9 C7.50662244 11.32303176 6.88613062 12.4306531 7.4375 15.1875 C9.0122735 17.38648665 9.0122735 17.38648665 12.625 17.75 C13.73875 17.8325 14.8525 17.915 16 18 C16.66 16.68 17.32 15.36 18 14 C17.071875 13.9175 16.14375 13.835 15.1875 13.75 C12 13 12 13 10.125 10.9375 C9.75375 10.298125 9.3825 9.65875 9 9 Z M20 9 C20.020625 9.928125 20.04125 10.85625 20.0625 11.8125 C20 15 20 15 19 18 C20.65 18 22.3 18 24 18 C24 15.03 24 12.06 24 9 C22.68 9 21.36 9 20 9 Z M17 10 C16.67 10.66 16.34 11.32 16 12 C16.99 11.67 17.98 11.34 19 11 C18.34 10.67 17.68 10.34 17 10 Z M18 21 C19 25 19 25 19 25 Z M21 22 C21 22.33 21 22.66 21 23 C24.3 23 27.6 23 31 23 C31 22.67 31 22.34 31 22 C27.7 22 24.4 22 21 22 Z M18 27 C18 30.96 18 34.92 18 39 C19.80568106 35.38863788 20.24851563 34.455469 20.125 30.75 C20.08375 29.5125 20.0425 28.275 20 27 C19.34 27 18.68 27 18 27 Z M28 30 C29 32 29 32 29 32 Z M33 30 C34 33 34 33 34 33 Z M28 34 C29 37 29 37 29 37 Z M33 34 C33 37 33 37 33 37 Z M-1 36 C-1 36.33 -1 36.66 -1 37 C4.61 37 10.22 37 16 37 C16 36.67 16 36.34 16 36 C10.39 36 4.78 36 -1 36 Z M33 38 C32.67 38.66 32.34 39.32 32 40 C32.66 40 33.32 40 34 40 C33.67 39.34 33.34 38.68 33 38 Z " fill="#777777" transform="translate(5,0)"/>
<path d="M0 0 C2.97 0 5.94 0 9 0 C9 0.66 9 1.32 9 2 C6.03 2 3.06 2 0 2 C0 1.34 0 0.68 0 0 Z " fill="#777777" transform="translate(9,25)"/>
</svg>
