<?xml version="1.0" encoding="UTF-8"?>
<svg version="1.1" xmlns="http://www.w3.org/2000/svg" width="36" height="36">
<path d="M0 0 C1.65 0 3.3 0 5 0 C5 0.99 5 1.98 5 3 C6.32 3 7.64 3 9 3 C9.33 2.01 9.66 1.02 10 0 C12.475 0.495 12.475 0.495 15 1 C15 1.66 15 2.32 15 3 C16.32 3 17.64 3 19 3 C19.33 2.01 19.66 1.02 20 0 C23.67082673 0.61180446 27.27814087 1.27814087 30 4 C30.31052762 8.59709364 30.27848016 13.20621403 30.3125 17.8125 C30.34150391 19.10994141 30.37050781 20.40738281 30.40039062 21.74414062 C30.40876953 22.99001953 30.41714844 24.23589844 30.42578125 25.51953125 C30.44036377 26.66526611 30.45494629 27.81100098 30.4699707 28.99145508 C29.90195446 32.62764423 28.87350316 33.77874599 26 36 C23.14232798 36.64722706 20.98432086 36.28422103 18 36 C17.01 35.34 16.02 34.68 15 34 C12.79094059 33.74126273 12.79094059 33.74126273 10.3671875 33.83984375 C9.03494141 33.8562793 9.03494141 33.8562793 7.67578125 33.87304688 C6.28939453 33.90495117 6.28939453 33.90495117 4.875 33.9375 C3.03913827 33.97177958 1.20319371 34.00195502 -0.6328125 34.02734375 C-1.44637207 34.04531006 -2.25993164 34.06327637 -3.09814453 34.08178711 C-5 34 -5 34 -6 33 C-6.08775605 30.85441173 -6.10695219 28.70595579 -6.09765625 26.55859375 C-6.09443359 25.25341797 -6.09121094 23.94824219 -6.08789062 22.60351562 C-6.07953401 21.2148431 -6.07106905 19.82617123 -6.0625 18.4375 C-6.05748666 17.04492344 -6.05292347 15.65234519 -6.04882812 14.25976562 C-6.03699434 10.8398013 -6.0205088 7.41992156 -6 4 C-4.7934375 3.566875 -4.7934375 3.566875 -3.5625 3.125 C-0.8673532 2.26737432 -0.8673532 2.26737432 0 0 Z M2 2 C2 3.65 2 5.3 2 7 C2.33 7 2.66 7 3 7 C3 5.35 3 3.7 3 2 C2.67 2 2.34 2 2 2 Z M11 2 C11 3.65 11 5.3 11 7 C11.66 7 12.32 7 13 7 C13 5.35 13 3.7 13 2 C12.34 2 11.68 2 11 2 Z M21 2 C21 3.65 21 5.3 21 7 C21.33 7 21.66 7 22 7 C22 5.35 22 3.7 22 2 C21.67 2 21.34 2 21 2 Z M-3 5 C-3.33 6.65 -3.66 8.3 -4 10 C6.56 10 17.12 10 28 10 C27.67 8.35 27.34 6.7 27 5 C26.34 5 25.68 5 25 5 C24.01 6.485 24.01 6.485 23 8 C22.01 8 21.02 8 20 8 C19.67 7.01 19.34 6.02 19 5 C17.68 5 16.36 5 15 5 C14.67 5.99 14.34 6.98 14 8 C12.68 8 11.36 8 10 8 C9.67 7.01 9.34 6.02 9 5 C7.68 5 6.36 5 5 5 C4.67 5.99 4.34 6.98 4 8 C3.01 8 2.02 8 1 8 C0.34 7.01 -0.32 6.02 -1 5 C-1.66 5 -2.32 5 -3 5 Z M-4 13 C-4 19.27 -4 25.54 -4 32 C2.27 32 8.54 32 15 32 C15 29.69 15 27.38 15 25 C14.34 25 13.68 25 13 25 C13.33 21.7 13.66 18.4 14 15 C15.65 15 17.3 15 19 15 C19 16.32 19 17.64 19 19 C18.01 19.495 18.01 19.495 17 20 C17.66 20.33 18.32 20.66 19 21 C19.66 20.34 20.32 19.68 21 19 C20.6814823 16.89179203 20.6814823 16.89179203 20 15 C21.98 15 23.96 15 26 15 C25.67 16.98 25.34 18.96 25 21 C25.99 21.33 26.98 21.66 28 22 C28 19.03 28 16.06 28 13 C17.44 13 6.88 13 -4 13 Z M17.6875 23.625 C15.6786808 25.93972306 15.6786808 25.93972306 16.125 29.125 C16.78308824 32.09681373 16.78308824 32.09681373 19 34 C22.10347254 34.33015665 24.15781176 34.50531294 26.875 32.875 C28.54663625 30.08893958 28.46376624 28.18011138 28 25 C26.34626504 23.00966359 26.34626504 23.00966359 24 22 C20.074402 21.61670299 20.074402 21.61670299 17.6875 23.625 Z " fill="#777777" transform="translate(6,0)"/>
<path d="M0 0 C1.32 0.33 2.64 0.66 4 1 C4 5.95 4 10.9 4 16 C-0 17 -0 17 -2 16 C-1.814375 15.2575 -1.62875 14.515 -1.4375 13.75 C-1.00229766 11.01444245 -1.19527469 9.59300379 -2 7 C-2 4.47717345 -1.84805104 1.84805104 0 0 Z " fill="#777777" transform="translate(13,14)"/>
<path d="M0 0 C0 4.95 0 9.9 0 15 C-4 16 -4 16 -6 15 C-5.814375 14.2575 -5.62875 13.515 -5.4375 12.75 C-5.00229766 10.01444245 -5.19527469 8.59300379 -6 6 C-6 4 -6 2 -6 0 C-4 -1 -4 -1 0 0 Z " fill="#777777" transform="translate(10,15)"/>
<path d="M0 0 C0.66 0 1.32 0 2 0 C0.70700306 2.88437779 -0.65941363 4.87219421 -3 7 C-5.475 6.01 -5.475 6.01 -8 5 C-8 4.34 -8 3.68 -8 3 C-6.8553125 3.0928125 -6.8553125 3.0928125 -5.6875 3.1875 C-2.52219632 2.96666486 -2.01513783 2.30301466 0 0 Z " fill="#777777" transform="translate(31,25)"/>
</svg>
