<?xml version="1.0" encoding="UTF-8"?>
<svg version="1.1" xmlns="http://www.w3.org/2000/svg" width="43" height="45">
<path d="M0 0 C3.61147999 1.07006815 4.60027905 1.76374416 6.375 5 C6.705 4.67 7.035 4.34 7.375 4 C9.03929051 3.90176063 10.70781931 3.87026369 12.375 3.875 C13.73625 3.87113281 13.73625 3.87113281 15.125 3.8671875 C17.375 4 17.375 4 18.375 5 C18.41580783 6.99958364 18.41754356 9.00045254 18.375 11 C16.725 11.33 15.075 11.66 13.375 12 C13.6225 13.0725 13.87 14.145 14.125 15.25 C14.375 19 14.375 19 12.875 21.5 C9.40877718 23.57973369 7.2149099 22.88613305 3.375 22 C3.375 22.99 3.375 23.98 3.375 25 C0.405 25 -2.565 25 -5.625 25 C-5.625 24.01 -5.625 23.02 -5.625 22 C-6.6975 22.2475 -7.77 22.495 -8.875 22.75 C-12.625 23 -12.625 23 -15.125 21.5 C-17.20473369 18.03377718 -16.51113305 15.8399099 -15.625 12 C-16.945 11.67 -18.265 11.34 -19.625 11 C-19.625 8.69 -19.625 6.38 -19.625 4 C-18.88894531 4.04640625 -18.15289063 4.0928125 -17.39453125 4.140625 C-10.04769384 4.41237064 -6.34664179 0 0 0 Z M-2.625 2 C1.375 3 1.375 3 1.375 3 Z M-5.625 4 C-5.955 5.65 -6.285 7.3 -6.625 9 C-5.965 9 -5.305 9 -4.625 9 C-4.625 7.35 -4.625 5.7 -4.625 4 C-4.955 4 -5.285 4 -5.625 4 Z M2.375 4 C2.375 5.65 2.375 7.3 2.375 9 C3.365 9.495 3.365 9.495 4.375 10 C4.375 8.35 4.375 6.7 4.375 5 C3.715 4.67 3.055 4.34 2.375 4 Z M-2.625 5 C-2.625 5.66 -2.625 6.32 -2.625 7 C-1.635 7 -0.645 7 0.375 7 C0.375 6.34 0.375 5.68 0.375 5 C-0.615 5 -1.605 5 -2.625 5 Z M-17.625 6 C-17.625 7.32 -17.625 8.64 -17.625 10 C-16.635 10.33 -15.645 10.66 -14.625 11 C-14.02767181 13.76264289 -13.625 16.16032769 -13.625 19 C-12.635 19.66 -11.645 20.32 -10.625 21 C-9.635 20.67 -8.645 20.34 -7.625 20 C-5.4375 20.4375 -5.4375 20.4375 -3.625 21 C-3.625 21.99 -3.625 22.98 -3.625 24 C-1.975 24 -0.325 24 1.375 24 C1.375 23.01 1.375 22.02 1.375 21 C4.81015002 20.37542727 7.86564814 20 11.375 20 C11.375 18.68 11.375 17.36 11.375 16 C11.68330925 13.99598989 12.01229412 11.99488234 12.375 10 C13.365 10 14.355 10 15.375 10 C15.705 8.68 16.035 7.36 16.375 6 C14.065 6 11.755 6 9.375 6 C8.983125 7.258125 8.59125 8.51625 8.1875 9.8125 C7.08700501 12.69937987 6.45376473 13.927799 4.125 16.0625 C0.42565505 17.32364033 -1.87020218 17.02403577 -5.625 16 C-8.77552314 13.7614704 -9.50110406 12.53688242 -10.375 8.75 C-10.4575 7.8425 -10.54 6.935 -10.625 6 C-12.935 6 -15.245 6 -17.625 6 Z M-9.625 6 C-8.625 9 -8.625 9 -8.625 9 Z M-8.625 10 C-8.295 10.99 -7.965 11.98 -7.625 13 C-7.625 12.01 -7.625 11.02 -7.625 10 C-7.955 10 -8.285 10 -8.625 10 Z M-3.625 10 C-3.955 10.66 -4.285 11.32 -4.625 12 C-2.22780568 12.67958603 -2.22780568 12.67958603 0.375 13 C1.035 12.34 1.695 11.68 2.375 11 C1.30854885 9.70366379 1.30854885 9.70366379 -1.1875 9.9375 C-1.991875 9.958125 -2.79625 9.97875 -3.625 10 Z M5.375 10 C6.375 12 6.375 12 6.375 12 Z " fill="#FCC52F" transform="translate(19.625,20)"/>
<path d="M0 0 C2.60938272 1.44965707 3.3662599 2.42203169 4.25 5.25 C3.92 5.91 3.59 6.57 3.25 7.25 C3.91 7.25 4.57 7.25 5.25 7.25 C5.44575936 11.45882632 5.14367762 14.46264476 3.25 18.25 C2.59 18.91 1.93 19.57 1.25 20.25 C-0.07 20.25 -1.39 20.25 -2.75 20.25 C-2.75 20.91 -2.75 21.57 -2.75 22.25 C-7.60794252 22.59699589 -10.62651904 21.87403334 -14.75 19.25 C-16.0625 17.1875 -16.0625 17.1875 -16.75 15.25 C-17.08 14.59 -17.41 13.93 -17.75 13.25 C-17.789992 11.25039988 -17.79346799 9.24952758 -17.75 7.25 C-17.09 7.25 -16.43 7.25 -15.75 7.25 C-16.08 5.93 -16.41 4.61 -16.75 3.25 C-11.04376556 -0.29711871 -6.67824258 -1.82133889 0 0 Z M-13.75 3.25 C-13.42 4.57 -13.09 5.89 -12.75 7.25 C-11.76 5.93 -10.77 4.61 -9.75 3.25 C-11.07 3.25 -12.39 3.25 -13.75 3.25 Z M-1.75 3.25 C-0.76 4.24 0.23 5.23 1.25 6.25 C1.25 5.26 1.25 4.27 1.25 3.25 C0.26 3.25 -0.73 3.25 -1.75 3.25 Z M-9.75 5.25 C-11.51462683 8.33809695 -11.75 9.48312136 -11.75 13.25 C-10.76 13.25 -9.77 13.25 -8.75 13.25 C-8.75 14.24 -8.75 15.23 -8.75 16.25 C-7.1 16.25 -5.45 16.25 -3.75 16.25 C-3.42 15.59 -3.09 14.93 -2.75 14.25 C-3.389375 13.858125 -4.02875 13.46625 -4.6875 13.0625 C-7.18778819 10.86527704 -7.39950425 9.49208567 -7.75 6.25 C-6.76 6.25 -5.77 6.25 -4.75 6.25 C-4.75 7.9 -4.75 9.55 -4.75 11.25 C-3.43 11.91 -2.11 12.57 -0.75 13.25 C-0.75 11.27 -0.75 9.29 -0.75 7.25 C-1.41 7.25 -2.07 7.25 -2.75 7.25 C-2.75 6.59 -2.75 5.93 -2.75 5.25 C-5.06 5.25 -7.37 5.25 -9.75 5.25 Z M-14.75 7.25 C-15.08 8.9 -15.41 10.55 -15.75 12.25 C-14.76 12.745 -14.76 12.745 -13.75 13.25 C-13.75 11.27 -13.75 9.29 -13.75 7.25 C-14.08 7.25 -14.41 7.25 -14.75 7.25 Z M1.25 7.25 C2.25 9.25 2.25 9.25 2.25 9.25 Z M2.25 9.25 C3.25 12.25 3.25 12.25 3.25 12.25 Z M1.25 12.25 C2.25 14.25 2.25 14.25 2.25 14.25 Z M-13.75 14.25 C-13.42 15.57 -13.09 16.89 -12.75 18.25 C-11.43 17.92 -10.11 17.59 -8.75 17.25 C-10.4 16.26 -12.05 15.27 -13.75 14.25 Z M0.25 14.25 C-1.235 16.23 -1.235 16.23 -2.75 18.25 C-1.43 17.92 -0.11 17.59 1.25 17.25 C0.92 16.26 0.59 15.27 0.25 14.25 Z M-8.75 18.25 C-8.42 18.91 -8.09 19.57 -7.75 20.25 C-6.43 19.92 -5.11 19.59 -3.75 19.25 C-3.75 18.92 -3.75 18.59 -3.75 18.25 C-5.4 18.25 -7.05 18.25 -8.75 18.25 Z " fill="#FCC52F" transform="translate(37.75,0.75)"/>
<path d="M0 0 C-0.66 1.32 -1.32 2.64 -2 4 C-2.33 3.34 -2.66 2.68 -3 2 C-5.97 2 -8.94 2 -12 2 C-12 5.3 -12 8.6 -12 12 C-12.66 12 -13.32 12 -14 12 C-14 8.04 -14 4.08 -14 0 C-3.375 -1.125 -3.375 -1.125 0 0 Z " fill="#FCC52F" transform="translate(18,10)"/>
</svg>
