<?xml version="1.0" encoding="UTF-8"?>
<svg version="1.1" xmlns="http://www.w3.org/2000/svg" width="41" height="39">
<path d="M0 0 C1.13211914 -0.01836914 1.13211914 -0.01836914 2.28710938 -0.03710938 C6.47731229 -0.0481848 8.60001835 0.26875918 12.4375 2.1875 C12.4375 12.7475 12.4375 23.3075 12.4375 34.1875 C10.140963 35.3357685 8.85436833 35.30311175 6.3046875 35.28515625 C5.49902344 35.28193359 4.69335938 35.27871094 3.86328125 35.27539062 C2.60064453 35.26282227 2.60064453 35.26282227 1.3125 35.25 C0.03826172 35.24323242 0.03826172 35.24323242 -1.26171875 35.23632812 C-3.36200909 35.22452874 -5.4622633 35.20659306 -7.5625 35.1875 C-7.5625 36.5075 -7.5625 37.8275 -7.5625 39.1875 C-14.4925 39.1875 -21.4225 39.1875 -28.5625 39.1875 C-28.5625 31.1875 -28.5625 31.1875 -26.0625 28.6875 C-25.2375 28.1925 -24.4125 27.6975 -23.5625 27.1875 C-24.0575 26.61 -24.5525 26.0325 -25.0625 25.4375 C-26.5625 23.1875 -26.5625 23.1875 -26.5625 19.1875 C-27.2225 19.1875 -27.8825 19.1875 -28.5625 19.1875 C-27.26361288 11.18908983 -27.26361288 11.18908983 -24.8125 7.6875 C-22.03026732 5.83267821 -19.88160206 5.40396318 -16.5625 5.1875 C-15.9025 5.5175 -15.2425 5.8475 -14.5625 6.1875 C-14.2325 4.5375 -13.9025 2.8875 -13.5625 1.1875 C-9.02296552 0.05938507 -4.6463174 0.00398826 0 0 Z M-12.5625 3.1875 C-12.72931109 6.10402174 -12.72931109 6.10402174 -12.5625 9.1875 C-11.9025 9.8475 -11.2425 10.5075 -10.5625 11.1875 C-10.005625 10.506875 -9.44875 9.82625 -8.875 9.125 C-6.5625 7.1875 -6.5625 7.1875 -3.9375 7.375 C-1.5625 8.1875 -1.5625 8.1875 0.4375 9.1875 C1.98363014 9.10098369 3.52659387 8.94747364 5.0625 8.75 C6.28839844 8.59724609 6.28839844 8.59724609 7.5390625 8.44140625 C8.16554688 8.35761719 8.79203125 8.27382812 9.4375 8.1875 C9.4375 8.8475 9.4375 9.5075 9.4375 10.1875 C6.4675 10.1875 3.4975 10.1875 0.4375 10.1875 C-0.2225 12.4975 -0.8825 14.8075 -1.5625 17.1875 C-4.84946233 17.98703138 -6.27273192 18.28408936 -9.5625 17.1875 C-12.44299303 22.93336916 -12.44299303 22.93336916 -12.5625 29.1875 C-9.6635368 31.9068126 -7.73129764 32.55613072 -3.796875 32.48046875 C-2.59369629 32.46922974 -2.59369629 32.46922974 -1.36621094 32.45776367 C0.14537598 32.41679565 0.14537598 32.41679565 1.6875 32.375 C4.905 32.313125 8.1225 32.25125 11.4375 32.1875 C11.4375 22.9475 11.4375 13.7075 11.4375 4.1875 C7.33637971 4.1875 3.27699709 4.42016538 -0.8125 4.6875 C-1.55757812 4.73519531 -2.30265625 4.78289063 -3.0703125 4.83203125 C-4.90111448 4.94939035 -6.73181742 5.06829276 -8.5625 5.1875 C-8.5625 4.5275 -8.5625 3.8675 -8.5625 3.1875 C-9.8825 3.1875 -11.2025 3.1875 -12.5625 3.1875 Z M-22.5625 8.1875 C-23.2225 9.8375 -23.8825 11.4875 -24.5625 13.1875 C-22.644375 13.0328125 -22.644375 13.0328125 -20.6875 12.875 C-19.96820312 12.81699219 -19.24890625 12.75898438 -18.5078125 12.69921875 C-16.16730784 12.31356964 -16.16730784 12.31356964 -14.5625 9.1875 C-15.74674326 7.77172523 -15.74674326 7.77172523 -19.125 8.125 C-20.8265625 8.1559375 -20.8265625 8.1559375 -22.5625 8.1875 Z M-9.5625 11.1875 C-9.2325 12.1775 -8.9025 13.1675 -8.5625 14.1875 C-8.5625 13.5275 -8.5625 12.8675 -8.5625 12.1875 C-7.5725 12.5175 -6.5825 12.8475 -5.5625 13.1875 C-4.5725 11.8675 -3.5825 10.5475 -2.5625 9.1875 C-6.51707848 8.83926193 -6.51707848 8.83926193 -9.5625 11.1875 Z M-18.5625 15.1875 C-16.5825 15.1875 -14.6025 15.1875 -12.5625 15.1875 C-12.5625 14.1975 -12.5625 13.2075 -12.5625 12.1875 C-15.32473278 12.1875 -16.45531454 13.50175163 -18.5625 15.1875 Z M-5.6875 14.1875 C-6.30625 14.8475 -6.925 15.5075 -7.5625 16.1875 C-5.9125 16.1875 -4.2625 16.1875 -2.5625 16.1875 C-2.2325 14.8675 -1.9025 13.5475 -1.5625 12.1875 C-3.80612573 11.9590451 -3.80612573 11.9590451 -5.6875 14.1875 Z M-23.5625 15.1875 C-23.5625 16.1775 -23.5625 17.1675 -23.5625 18.1875 C-24.5525 18.6825 -24.5525 18.6825 -25.5625 19.1875 C-23.88468815 23.66384575 -23.88468815 23.66384575 -20.125 26.25 C-17.5415856 26.36426712 -17.5415856 26.36426712 -15.375 25.125 C-13.08857269 22.68088805 -12.41660287 20.39038575 -11.5625 17.1875 C-12.8 17.043125 -14.0375 16.89875 -15.3125 16.75 C-18.12754499 16.40061498 -20.8326497 15.98370634 -23.5625 15.1875 Z M-26.5625 32.1875 C-26.5625 33.8375 -26.5625 35.4875 -26.5625 37.1875 C-21.2825 37.1875 -16.0025 37.1875 -10.5625 37.1875 C-10.5625 35.5375 -10.5625 33.8875 -10.5625 32.1875 C-16.26710133 30.01431854 -21.12738259 28.84281236 -26.5625 32.1875 Z " fill="#777777" transform="translate(28.5625,-0.1875)"/>
<path d="M0 0 C5.61 0 11.22 0 17 0 C17.33 0.99 17.66 1.98 18 3 C11.73 3 5.46 3 -1 3 C-0.67 2.01 -0.34 1.02 0 0 Z " fill="#777777" transform="translate(20,21)"/>
<path d="M0 0 C3.3 0 6.6 0 10 0 C10.33 0.99 10.66 1.98 11 3 C7.37 3 3.74 3 0 3 C0 2.01 0 1.02 0 0 Z " fill="#777777" transform="translate(27,26)"/>
<path d="M0 0 C1.65 0 3.3 0 5 0 C5.33 0.99 5.66 1.98 6 3 C3.69 3 1.38 3 -1 3 C-0.67 2.01 -0.34 1.02 0 0 Z " fill="#777777" transform="translate(20,26)"/>
<path d="M0 0 C2.97 0 5.94 0 9 0 C9 0.66 9 1.32 9 2 C5.7 2 2.4 2 -1 2 C-0.67 1.34 -0.34 0.68 0 0 Z " fill="#777777" transform="translate(29,16)"/>
<path d="M0 0 C2.64 0 5.28 0 8 0 C8 0.66 8 1.32 8 2 C5.36 2 2.72 2 0 2 C0 1.34 0 0.68 0 0 Z " fill="#777777" transform="translate(30,12)"/>
</svg>
