<?xml version="1.0" encoding="UTF-8"?>
<svg version="1.1" xmlns="http://www.w3.org/2000/svg" width="43" height="43">
<path d="M0 0 C5.90694298 -0.12682519 5.90694298 -0.12682519 9.25830078 1.96777344 C11.95869205 4.83693916 12.44639749 6.49281885 12.57080078 10.34277344 C12.626875 11.46425781 12.626875 11.46425781 12.68408203 12.60839844 C12.25830078 15.09277344 12.25830078 15.09277344 10.25439453 17.80371094 C7.59733085 22.18188631 7.80091763 25.46664897 8.00830078 30.46777344 C8.02634766 31.29921875 8.04439453 32.13066406 8.06298828 32.98730469 C8.10978505 35.02296418 8.1815178 37.05802434 8.25830078 39.09277344 C7.26830078 39.42277344 6.27830078 39.75277344 5.25830078 40.09277344 C4.92830078 41.08277344 4.59830078 42.07277344 4.25830078 43.09277344 C2.60830078 43.09277344 0.95830078 43.09277344 -0.74169922 43.09277344 C-1.07169922 42.10277344 -1.40169922 41.11277344 -1.74169922 40.09277344 C-2.82439087 40.10062866 -2.82439087 40.10062866 -3.92895508 40.10864258 C-7.17902771 40.12934702 -10.4290865 40.14241262 -13.67919922 40.15527344 C-15.38366211 40.1678418 -15.38366211 40.1678418 -17.12255859 40.18066406 C-18.20214844 40.18388672 -19.28173828 40.18710937 -20.39404297 40.19042969 C-21.89439087 40.19828491 -21.89439087 40.19828491 -23.42504883 40.20629883 C-25.74169922 40.09277344 -25.74169922 40.09277344 -26.74169922 39.09277344 C-26.82918129 37.16609836 -26.84867256 35.23625483 -26.83935547 33.30761719 C-26.83452148 31.55288086 -26.83452148 31.55288086 -26.82958984 29.76269531 C-26.82121094 28.53099609 -26.81283203 27.29929687 -26.80419922 26.03027344 C-26.7996875 24.79470703 -26.79517578 23.55914063 -26.79052734 22.28613281 C-26.7786953 19.22163227 -26.76221095 16.15722622 -26.74169922 13.09277344 C-28.06169922 12.76277344 -29.38169922 12.43277344 -30.74169922 12.09277344 C-30.74169922 8.79277344 -30.74169922 5.49277344 -30.74169922 2.09277344 C-28.13745474 0.7906512 -26.08855526 0.88091284 -23.17529297 0.77636719 C-22.04929687 0.73447266 -20.92330078 0.69257813 -19.76318359 0.64941406 C-18.58046875 0.61009766 -17.39775391 0.57078125 -16.17919922 0.53027344 C-15.02355469 0.48708984 -13.86791016 0.44390625 -12.67724609 0.39941406 C-8.45194015 0.2482532 -4.22553153 0.14298326 0 0 Z M-28.74169922 4.09277344 C-28.74169922 6.07277344 -28.74169922 8.05277344 -28.74169922 10.09277344 C-27.75169922 9.76277344 -26.76169922 9.43277344 -25.74169922 9.09277344 C-26.07169922 7.44277344 -26.40169922 5.79277344 -26.74169922 4.09277344 C-27.40169922 4.09277344 -28.06169922 4.09277344 -28.74169922 4.09277344 Z M-23.74169922 4.09277344 C-23.74169922 15.31277344 -23.74169922 26.53277344 -23.74169922 38.09277344 C-16.48169922 38.09277344 -9.22169922 38.09277344 -1.74169922 38.09277344 C-1.74169922 37.76277344 -1.74169922 37.43277344 -1.74169922 37.09277344 C-8.67169922 37.09277344 -15.60169922 37.09277344 -22.74169922 37.09277344 C-22.74169922 33.46277344 -22.74169922 29.83277344 -22.74169922 26.09277344 C-22.08169922 26.09277344 -21.42169922 26.09277344 -20.74169922 26.09277344 C-20.74169922 29.06277344 -20.74169922 32.03277344 -20.74169922 35.09277344 C-20.41169922 35.09277344 -20.08169922 35.09277344 -19.74169922 35.09277344 C-19.74169922 33.11277344 -19.74169922 31.13277344 -19.74169922 29.09277344 C-18.09169922 29.42277344 -16.44169922 29.75277344 -14.74169922 30.09277344 C-14.74169922 28.77277344 -14.74169922 27.45277344 -14.74169922 26.09277344 C-13.09169922 26.09277344 -11.44169922 26.09277344 -9.74169922 26.09277344 C-9.74169922 27.74277344 -9.74169922 29.39277344 -9.74169922 31.09277344 C-8.09169922 31.09277344 -6.44169922 31.09277344 -4.74169922 31.09277344 C-5.07169922 32.08277344 -5.40169922 33.07277344 -5.74169922 34.09277344 C-4.42169922 34.42277344 -3.10169922 34.75277344 -1.74169922 35.09277344 C-1.41169922 30.47277344 -1.08169922 25.85277344 -0.74169922 21.09277344 C-2.16482422 20.22652344 -2.16482422 20.22652344 -3.61669922 19.34277344 C-6.65560009 17.15476481 -7.52323019 16.45574796 -8.74169922 13.09277344 C-8.71118011 10.02051668 -8.19048597 7.14452332 -7.74169922 4.09277344 C-13.02169922 4.09277344 -18.30169922 4.09277344 -23.74169922 4.09277344 Z M-2.74169922 6.09277344 C-2.08169922 6.09277344 -1.42169922 6.09277344 -0.74169922 6.09277344 C-0.92732422 7.20652344 -1.11294922 8.32027344 -1.30419922 9.46777344 C-2.05850579 12.91846204 -2.05850579 12.91846204 -0.74169922 15.09277344 C-1.73169922 15.58777344 -1.73169922 15.58777344 -2.74169922 16.09277344 C1.36053663 17.10817456 1.36053663 17.10817456 5.25830078 16.09277344 C5.25830078 12.46277344 5.25830078 8.83277344 5.25830078 5.09277344 C0.37615191 3.50351779 0.37615191 3.50351779 -2.74169922 6.09277344 Z M-6.74169922 6.09277344 C-5.74169922 8.09277344 -5.74169922 8.09277344 -5.74169922 8.09277344 Z M-4.74169922 8.09277344 C-4.74169922 9.74277344 -4.74169922 11.39277344 -4.74169922 13.09277344 C-4.41169922 13.09277344 -4.08169922 13.09277344 -3.74169922 13.09277344 C-3.74169922 11.44277344 -3.74169922 9.79277344 -3.74169922 8.09277344 C-4.07169922 8.09277344 -4.40169922 8.09277344 -4.74169922 8.09277344 Z M9.25830078 13.09277344 C10.25830078 15.09277344 10.25830078 15.09277344 10.25830078 15.09277344 Z M4.25830078 21.09277344 C4.25830078 23.07277344 4.25830078 25.05277344 4.25830078 27.09277344 C4.58830078 27.09277344 4.91830078 27.09277344 5.25830078 27.09277344 C5.25830078 25.11277344 5.25830078 23.13277344 5.25830078 21.09277344 C4.92830078 21.09277344 4.59830078 21.09277344 4.25830078 21.09277344 Z M1.25830078 22.09277344 C2.25830078 26.09277344 2.25830078 26.09277344 2.25830078 26.09277344 Z M0.25830078 31.09277344 C0.25830078 34.39277344 0.25830078 37.69277344 0.25830078 41.09277344 C1.24830078 40.76277344 2.23830078 40.43277344 3.25830078 40.09277344 C3.25830078 37.45277344 3.25830078 34.81277344 3.25830078 32.09277344 C2.26830078 31.76277344 1.27830078 31.43277344 0.25830078 31.09277344 Z " fill="#777777" transform="translate(30.74169921875,-0.0927734375)"/>
<path d="M0 0 C4.29 0 8.58 0 13 0 C13 0.66 13 1.32 13 2 C13.99 2 14.98 2 16 2 C16 2.66 16 3.32 16 4 C10.72 4 5.44 4 0 4 C0 2.68 0 1.36 0 0 Z " fill="#777777" transform="translate(8,17)"/>
<path d="M0 0 C3.96 0 7.92 0 12 0 C11 3 11 3 9 5 C6.8359375 5.1953125 6.8359375 5.1953125 4.375 5.125 C3.55773437 5.10695313 2.74046875 5.08890625 1.8984375 5.0703125 C1.27195312 5.04710937 0.64546875 5.02390625 0 5 C0 3.35 0 1.7 0 0 Z " fill="#777777" transform="translate(8,5)"/>
<path d="M0 0 C4.29 0 8.58 0 13 0 C13 0.66 13 1.32 13 2 C8.71 2 4.42 2 0 2 C0 1.34 0 0.68 0 0 Z " fill="#777777" transform="translate(8,22)"/>
<path d="M0 0 C1.65 0 3.3 0 5 0 C5 0.66 5 1.32 5 2 C3.35 2 1.7 2 0 2 C0 1.34 0 0.68 0 0 Z " fill="#777777" transform="translate(8,12)"/>
</svg>
