<?xml version="1.0" encoding="UTF-8"?>
<svg version="1.1" xmlns="http://www.w3.org/2000/svg" width="42" height="42">
<path d="M0 0 C0 2.31 0 4.62 0 7 C-0.8353125 7.061875 -0.8353125 7.061875 -1.6875 7.125 C-5.24030274 8.46930374 -6.70958953 11.00974189 -9 14 C-9.53109375 13.77183594 -10.0621875 13.54367188 -10.609375 13.30859375 C-11.31578125 13.02113281 -12.0221875 12.73367187 -12.75 12.4375 C-13.44609375 12.14746094 -14.1421875 11.85742188 -14.859375 11.55859375 C-17.36139197 10.90569516 -18.60100327 11.08302811 -21 12 C-21.825 12.70125 -22.65 13.4025 -23.5 14.125 C-26 16 -26 16 -27.890625 15.80078125 C-30.34876343 14.86759907 -32.15531272 13.64903166 -34.25 12.0625 C-34.95640625 11.53785156 -35.6628125 11.01320313 -36.390625 10.47265625 C-36.92171875 9.98667969 -37.4528125 9.50070313 -38 9 C-38 8.34 -38 7.68 -38 7 C-35.25648576 7.99071348 -33.21135401 8.81506524 -31 10.75 C-30.34 11.1625 -29.68 11.575 -29 12 C-26.07772714 11.26943179 -24.29825435 10.25165211 -22 8.3125 C-20 7 -20 7 -17.5625 7.1875 C-14.97973801 8.00642453 -12.49017824 8.93278075 -10 10 C-9.154375 9.071875 -8.30875 8.14375 -7.4375 7.1875 C-6.96183594 6.66542969 -6.48617187 6.14335937 -5.99609375 5.60546875 C-5.66738281 5.07566406 -5.33867188 4.54585937 -5 4 C-5.495 2.515 -5.495 2.515 -6 1 C-3.92446352 0.4465236 -2.15634036 0 0 0 Z " fill="#777777" transform="translate(40,9)"/>
<path d="M0 0 C1.66611905 -0.042721 3.33382885 -0.04063832 5 0 C6 1 6 1 6.11352539 3.31665039 C6.10828857 4.31688232 6.10305176 5.31711426 6.09765625 6.34765625 C6.09282227 7.96704102 6.09282227 7.96704102 6.08789062 9.61914062 C6.07951172 10.75544922 6.07113281 11.89175781 6.0625 13.0625 C6.05798828 14.20267578 6.05347656 15.34285156 6.04882812 16.51757812 C6.03699747 19.34510351 6.0205141 22.1725264 6 25 C4.02 25 2.04 25 0 25 C-1.21445591 22.57108818 -1.12924198 20.99280557 -1.1328125 18.28125 C-1.13410156 17.34925781 -1.13539062 16.41726562 -1.13671875 15.45703125 C-1.13285156 14.48121094 -1.12898438 13.50539063 -1.125 12.5 C-1.12886719 11.52417969 -1.13273437 10.54835938 -1.13671875 9.54296875 C-1.13542969 8.61097656 -1.13414063 7.67898437 -1.1328125 6.71875 C-1.13168457 5.86216797 -1.13055664 5.00558594 -1.12939453 4.12304688 C-1 2 -1 2 0 0 Z M2 3 C2 9.6 2 16.2 2 23 C2.66 23 3.32 23 4 23 C4 16.4 4 9.8 4 3 C3.34 3 2.68 3 2 3 Z " fill="#777777" transform="translate(36,17)"/>
<path d="M0 0 C1.98 0 3.96 0 6 0 C7.5220959 1.5220959 7.12959521 2.88210082 7.1328125 5 C7.13410156 5.804375 7.13539062 6.60875 7.13671875 7.4375 C7.13285156 8.283125 7.12898438 9.12875 7.125 10 C7.12886719 10.845625 7.13273437 11.69125 7.13671875 12.5625 C7.13542969 13.366875 7.13414063 14.17125 7.1328125 15 C7.13168457 15.7425 7.13055664 16.485 7.12939453 17.25 C7 19 7 19 6 20 C4.02 20 2.04 20 0 20 C0 13.4 0 6.8 0 0 Z M2 2 C2 7.28 2 12.56 2 18 C2.66 18 3.32 18 4 18 C4 12.72 4 7.44 4 2 C3.34 2 2.68 2 2 2 Z " fill="#777777" transform="translate(18,22)"/>
<path d="M0 0 C2.5 0.125 2.5 0.125 3.5 1.125 C3.5983721 2.45543625 3.63078592 3.79093344 3.6328125 5.125 C3.63410156 5.929375 3.63539063 6.73375 3.63671875 7.5625 C3.63285156 8.408125 3.62898437 9.25375 3.625 10.125 C3.62886719 10.970625 3.63273438 11.81625 3.63671875 12.6875 C3.63542969 13.491875 3.63414062 14.29625 3.6328125 15.125 C3.63168457 15.8675 3.63055664 16.61 3.62939453 17.375 C3.5 19.125 3.5 19.125 2.5 20.125 C0.50041636 20.16580783 -1.50045254 20.16754356 -3.5 20.125 C-3.52888514 16.97918577 -3.54675923 13.83340531 -3.5625 10.6875 C-3.57087891 9.78966797 -3.57925781 8.89183594 -3.58789062 7.96679688 C-3.59111328 7.11279297 -3.59433594 6.25878906 -3.59765625 5.37890625 C-3.60551147 4.19276733 -3.60551147 4.19276733 -3.61352539 2.98266602 C-3.43542099 0.06826522 -2.92353114 0.14617656 0 0 Z M-1.5 2.125 C-1.5 7.405 -1.5 12.685 -1.5 18.125 C-0.84 18.125 -0.18 18.125 0.5 18.125 C0.5 12.845 0.5 7.565 0.5 2.125 C-0.16 2.125 -0.82 2.125 -1.5 2.125 Z " fill="#777777" transform="translate(3.5,21.875)"/>
<path d="M0 0 C3.22456813 2.72848072 3.91290117 4.37942087 4.5 8.5625 C4 12 4 12 2.5 14.4375 C-1.22026379 16.76266487 -3.64217141 16.41503129 -8 16 C-11 14 -11 14 -11.6875 12.01171875 C-12.27222665 7.66281426 -12.47462069 5.72676293 -10 1.9375 C-6.26092174 -0.47732138 -4.37028567 -0.7945974 0 0 Z M-7.6875 3.1875 C-9.39980576 5.55211272 -9.92857949 7.07175916 -10 10 C-8.02743761 12.80710801 -6.82110687 13.83978403 -3.4375 14.5 C-0.90829605 14.18850915 -0.90829605 14.18850915 0.875 12.375 C2.39781243 9.16017375 2.02316469 7.36182684 1 4 C-2.15896998 1.89402001 -4.31604146 0.81499214 -7.6875 3.1875 Z " fill="#777777" transform="translate(17,0)"/>
<path d="M0 0 C1.98 0 3.96 0 6 0 C7.75559942 1.75559942 7.13221919 4.03582442 7.13671875 6.37109375 C7.13285156 7.07363281 7.12898438 7.77617188 7.125 8.5 C7.12886719 9.20253906 7.13273437 9.90507813 7.13671875 10.62890625 C7.12661378 15.87338622 7.12661378 15.87338622 6 17 C4.02 17 2.04 17 0 17 C0 11.39 0 5.78 0 0 Z M2 2 C2 6.29 2 10.58 2 15 C2.66 15 3.32 15 4 15 C4 10.71 4 6.42 4 2 C3.34 2 2.68 2 2 2 Z " fill="#777777" transform="translate(27,25)"/>
<path d="M0 0 C2.31 0 4.62 0 7 0 C7 4.95 7 9.9 7 15 C4.69 15 2.38 15 0 15 C0 10.05 0 5.1 0 0 Z M2 2 C2 5.63 2 9.26 2 13 C2.66 13 3.32 13 4 13 C4 9.37 4 5.74 4 2 C3.34 2 2.68 2 2 2 Z " fill="#777777" transform="translate(9,27)"/>
<path d="M0 0 C1.98 0.495 1.98 0.495 4 1 C4 4.11257569 3.82638376 6.10765685 3 9 C1.68 9 0.36 9 -1 9 C-1.125 2.25 -1.125 2.25 0 0 Z " fill="#777777" transform="translate(12,3)"/>
</svg>
