<svg xmlns="http://www.w3.org/2000/svg" width="51" height="66" viewBox="0 0 51 66">
  <defs>
    <style>
      .cls-1 {
        fill: #020202;
        fill-rule: evenodd;
      }
    </style>
  </defs>
  <path id="User_1_copy" data-name="User 1 copy" class="cls-1" d="M497,2187.97l-5.261-.01c-0.581,0-1.227.01-1.945,0.01,0,0-5.092,0-11.9-.04l-4.5-20.06-3.125.02L466.352,2188c-0.04,0-.191-0.01-0.191-0.01V2188L446,2187.97l1.293-15.69c0.753-8.15,8.279-9.56,9.784-10.03s6.961-1.97,7.713-3.65a22.486,22.486,0,0,0,.369-3.94,15.456,15.456,0,0,1-4.786-7.39,0.448,0.448,0,0,1-.116.01c-1.4,0-2.907-1.65-2.907-3.78s0.289-4,1.669-4.02a58.146,58.146,0,0,1,.269-11.35l0.736,0.14c0.1-1.58.233-2.8,0.233-2.8,1.131,1.05,4.846.08,4.846,0.08,10.1-8.85,19.545,1.61,19.545,1.61l-0.08.97,0.726,0.24s0.242,8.69.242,10.14c0,0.19-.009.4-0.024,0.6,0.94,0.44,1.155,2.08,1.155,3.91,0,2.12-1.484,3.76-2.882,3.78a15.21,15.21,0,0,1-5.719,8.46c0.038,1.29.094,3.15,0.177,3.34,0.752,1.68,6.209,3.18,7.714,3.65s9.03,1.88,9.783,10.03l1.223,15.34a0.071,0.071,0,0,0-.022.01Zm-27.846-26.56,0.954,5.16h3.543l0.954-5.16h-5.451ZM466.423,2188h0Z" transform="translate(-446 -2122)"/>
</svg>
