<?xml version="1.0" encoding="UTF-8"?>
<!DOCTYPE svg PUBLIC "-//W3C//DTD SVG 1.1//EN" "http://www.w3.org/Graphics/SVG/1.1/DTD/svg11.dtd">
<svg xmlns="http://www.w3.org/2000/svg" version="1.1" width="512px" height="512px" style="shape-rendering:geometricPrecision; text-rendering:geometricPrecision; image-rendering:optimizeQuality; fill-rule:evenodd; clip-rule:evenodd" xmlns:xlink="http://www.w3.org/1999/xlink">
<g><path style="opacity:0.955" fill="#000000" d="M 511.5,247.5 C 511.5,253.167 511.5,258.833 511.5,264.5C 508.794,271.732 504.961,278.399 500,284.5C 489.299,294.869 478.299,304.869 467,314.5C 461.9,320.648 460.233,327.648 462,335.5C 464.333,347.167 466.667,358.833 469,370.5C 469.876,379.23 469.542,387.896 468,396.5C 463.337,409.602 454.171,417.768 440.5,421C 425.942,423.729 411.276,425.729 396.5,427C 386.214,427.889 379.047,433.055 375,442.5C 369.329,457.509 362.329,471.842 354,485.5C 338.738,502.493 320.905,505.66 300.5,495C 290.003,489.252 279.67,483.252 269.5,477C 262.072,473.385 254.405,472.719 246.5,475C 237.016,479.239 228.016,484.239 219.5,490C 209.606,496.521 198.772,500.021 187,500.5C 174.497,500.582 164.497,495.582 157,485.5C 148.338,471.176 141.005,456.176 135,440.5C 130.594,432.376 123.761,427.876 114.5,427C 101.133,425.597 87.7993,423.93 74.5,422C 48.4587,415.241 37.6253,398.408 42,371.5C 45.0156,357.756 47.5156,343.922 49.5,330C 49.554,325.495 48.3873,321.328 46,317.5C 33.309,305.808 20.9756,293.808 9,281.5C 5.00997,275.85 1.8433,269.85 -0.5,263.5C -0.5,257.833 -0.5,252.167 -0.5,246.5C 2.20571,239.268 6.03905,232.601 11,226.5C 21.7008,216.131 32.7008,206.131 44,196.5C 49.0986,189.627 50.7653,181.96 49,173.5C 47.3167,164.1 45.3167,154.766 43,145.5C 41.0621,135.152 41.0621,124.819 43,114.5C 47.4757,101.67 56.309,93.5029 69.5,90C 84.3943,87.2769 99.3943,85.2769 114.5,84C 124.45,82.7199 131.616,77.5533 136,68.5C 141.671,53.4914 148.671,39.1581 157,25.5C 171.474,9.16888 188.64,5.66888 208.5,15C 221.167,22 233.833,29 246.5,36C 249.456,36.989 252.456,37.8223 255.5,38.5C 258.544,37.8223 261.544,36.989 264.5,36C 275.49,30.5066 286.157,24.5066 296.5,18C 312.252,8.95416 328.252,8.2875 344.5,16C 354.015,24.8522 361.182,35.3522 366,47.5C 369.278,55.9993 372.945,64.3326 377,72.5C 381.351,79.1712 387.517,83.0046 395.5,84C 410.59,85.3959 425.59,87.3959 440.5,90C 464.249,97.971 473.749,114.471 469,139.5C 466.1,152.933 463.6,166.433 461.5,180C 461.586,185.26 463.086,190.093 466,194.5C 478.358,205.858 490.358,217.525 502,229.5C 505.99,235.15 509.157,241.15 511.5,247.5 Z M 184.5,36.5 C 188.687,36.3947 192.687,37.228 196.5,39C 208.912,46.4012 221.579,53.4012 234.5,60C 247.712,65.5256 261.045,65.8589 274.5,61C 288.154,54.1744 301.488,46.8411 314.5,39C 319.08,36.4526 323.747,36.1193 328.5,38C 332.273,41.7176 335.44,45.8842 338,50.5C 343.137,62.7727 348.804,74.7727 355,86.5C 364.559,101.703 378.393,109.87 396.5,111C 409.636,111.733 422.636,113.399 435.5,116C 441.355,118.536 444.022,123.036 443.5,129.5C 441.452,142.575 438.952,155.575 436,168.5C 432.309,185.332 435.976,200.332 447,213.5C 458.333,224.167 469.667,234.833 481,245.5C 486.879,252.131 486.879,258.798 481,265.5C 468.809,276.602 456.809,287.935 445,299.5C 435.532,312.419 432.532,326.752 436,342.5C 438.018,353.237 440.351,363.903 443,374.5C 446.394,386.225 442.228,393.391 430.5,396C 414.073,397.742 397.74,400.076 381.5,403C 367.969,407.196 358.136,415.696 352,428.5C 346.333,441.167 340.667,453.833 335,466.5C 329.111,475.346 321.611,476.846 312.5,471C 298.429,461.615 283.429,453.949 267.5,448C 258.075,445.806 248.741,446.14 239.5,449C 223.883,456.475 208.55,464.475 193.5,473C 190.594,474.318 187.594,474.652 184.5,474C 181,471.833 178.167,469 176,465.5C 170.06,453.286 164.393,440.953 159,428.5C 152.721,415.936 142.887,407.436 129.5,403C 111.644,400.265 93.8111,397.431 76,394.5C 68.5632,391.228 65.8966,385.561 68,377.5C 71.6079,361.461 74.4413,345.295 76.5,329C 75.8671,317.578 72.0338,307.411 65,298.5C 53.6667,287.833 42.3333,277.167 31,266.5C 25.4498,259.76 25.1165,252.76 30,245.5C 42.1911,234.398 54.1911,223.065 66,211.5C 72.6689,202.829 76.1689,192.995 76.5,182C 74.4413,165.705 71.6079,149.539 68,133.5C 65.8816,125.161 68.7149,119.328 76.5,116C 92.7957,113.427 109.129,111.094 125.5,109C 141.079,105.755 152.246,96.9216 159,82.5C 164.393,70.0471 170.06,57.7138 176,45.5C 178.362,41.9734 181.196,38.9734 184.5,36.5 Z"/></g>
<g><path style="opacity:0.949" fill="#000000" d="M 339.5,183.5 C 352.851,184.677 357.684,191.677 354,204.5C 319.667,242.167 285.333,279.833 251,317.5C 243.744,327.082 234.911,328.915 224.5,323C 203.664,310.414 182.664,298.081 161.5,286C 155.829,281.47 153.996,275.637 156,268.5C 158.347,263.74 162.181,261.073 167.5,260.5C 171.814,261.157 175.814,262.657 179.5,265C 197.356,275.917 215.356,286.251 233.5,296C 266.702,260.466 299.535,224.633 332,188.5C 334.426,186.548 336.926,184.881 339.5,183.5 Z"/></g>
</svg>
